<svg height="136" preserveAspectRatio="xMidYMid meet" viewBox="0 0 1360 1360" width="136" xmlns="http://www.w3.org/2000/svg"><path d="m0 680v-680h680 680v680 680h-680-680z" fill="#010101"/><g fill="#fff"><path d="m0 680v-680h680 680v680 680h-680-680zm798 534c2-27-2-45-13-54-8-7-15-19-15-26 0-11 25-14 125-14 141 0 145-2 145-79v-41h45c38 0 45-3 45-19s-8-20-42-23l-43-3-3-52-3-53h53c47 0 57 4 80 30 65 74 183-5 137-91-27-52-111-53-144-3-13 21-23 24-70 24h-55v-55c0-48 2-55 20-55 26 0 27-36 2-43-11-2-21-17-25-34-8-39-50-57-117-51l-50 5v-84-83l76-74c71-70 77-74 112-69 31 4 41 0 61-21 31-33 32-89 2-119-53-53-147-4-138 73 4 32-2 41-74 116l-79 82v86c0 79-2 86-20 86-17 0-20-7-20-41 0-36-2-40-22-37-18 2-24 11-26 38-3 32-15 49-34 50-5 0-8-69-8-153 0-141 2-153 20-164 32-21 48-63 38-100-19-72-125-74-154-4-12 28-12 37 1 62 9 16 24 35 35 42 18 11 20 23 20 164 0 84-3 153-7 153-20-1-32-18-35-50-2-27-8-36-25-38-21-3-23 1-23 37 0 34-3 41-20 41-18 0-20-7-20-86v-86l-77-80c-73-75-78-82-78-124-1-57-29-88-81-88-50 0-89 43-80 88 9 47 51 79 94 73 31-6 39-1 108 69l74 75v80 79h-56c-78 0-114 21-114 68 0 15-6 22-20 22-13 0-20 7-20 20s7 20 20 20c18 0 20 7 20 55v55h-60c-44 0-60-4-60-13 0-25-40-51-77-51-73 0-109 89-57 141 22 22 32 25 67 20 29-4 48-14 62-31 18-22 29-26 73-26h52v55 55h-46c-38 0-45 3-42 18 2 12 15 18 46 20l42 3v43c0 71 8 75 148 77 67 0 124 4 127 9 2 4-6 17-19 29-16 15-22 30-19 49 9 54 5 53 125 50 99.65981-2.4537 111.41552-7.6913 116-44zm-608-229c0-9-7-18-16-22-18-7-39 11-30 26 11 17 46 13 46-4zm1025-5c0-8-10-16-22-18-18-3-23 2-23 18s5 21 23 18c12-2 22-10 22-18zm-985-300c0-11-6-20-14-20-18 0-29 16-21 30 11 18 35 11 35-10zm938 3c-2-10-10-18-18-18s-16 8-18 18c-2 12 3 17 18 17s20-5 18-17zm-554-250c11-27-13-42-30-19-11 16-11 22-1 28 18 11 24 10 31-9zm160 11c17-7 10-34-9-34-14 0-27 25-18 34 8 7 8 7 27 0z"/><path d="m591.28565 1211.1161c13.38152-22.7217 29.07382-44.0675 41.46826-63.4364 15.00139-26.3848 20.30802-27.4801 50.24609-25.6797 29-3 34.27048 5.1702 44.03852 21.9275 3 10 19.86592 40.8438 27.99708 58.5037l4.10258 10.9155c-3.18821 5.994-103.76561 5.0907-153.13818 2.6533-9.48017-.3555-15.45044.6641-14.71435-4.8839z"/><path d="m383 1082c-15-2-23-10-23-23 0-18 8-19 113-19 63 0 117-3 120-7 4-3 2-12-4-20-8-9-41-13-120-13h-109l2-192c2-147 6-193 16-192 6 1 149 2 317 3l305 1v190 190h-115c-108 0-115 1-115 20s7 20 115 20 115 1 115 20-7 20-107 20c-60 0-193 1-298 3-104 1-200 1-212-1zm341-64c33-47 10-98-44-98-56 0-80 60-40 100 27 27 65 26 84-2zm-120-113c59-48 108-45 160 12 20 22 28 25 38 15 30-30-54-102-117-102-65 1-135 49-135 94 0 23 6 20 54-19zm-71-49c19-29 112-74 147-71 58 5 93 20 130 57 23 21 45 36 50 33 38-23-50-107-130-124-56-12-125-2-169 26-36 22-84 80-76 93 11 17 32 11 48-14zm-57-65c14-17 49-42 78-56 113-55 225-41 312 41 48 44 74 55 74 31 0-22-84-99-130-120-64-29-197-29-260 0-50 23-130 97-130 119 0 24 30 16 56-15z"/><path d="m109.23369 867.16299c-42.000007-15-34.043493-77.79074 10.95651-77.79074 30 0 52.0979 29.7669 38.0979 56.7669-12 21-35.73941 26.84882-49.05441 21.02384z"/><path d="m1201 852c-17-32-2-62 30-62 35 0 55 30 39 60-14 25-56 26-69 2z"/><path d="m633.08882 182.62326c2.47035-35.50148 49.44227-49.10085 71.58037-29.28525 25 23 26 61 1 75-50.02358 13.63372-71.59927-16.09654-72.58037-45.71475z"/><path d="m260 211c-22-42 27-86 61-55 22 20 25 44 7 62s-56 14-68-7z"/><path d="m1033.3804 215.06895c-18-18-15-42 7-62 42.4786-28.8061 84.072 28.92591 55 58-18 19-45 21-62 4z"/></g></svg>